<svg xmlns="http://www.w3.org/2000/svg" viewBox="0 0 1200 630">
  <rect width="1200" height="630" fill="#1C1C1A"/>
  <!-- subtle grid -->
  <g stroke="#2a2826" stroke-width="1">
    <line x1="0" y1="90" x2="1200" y2="90"/>
    <line x1="0" y1="180" x2="1200" y2="180"/>
    <line x1="0" y1="270" x2="1200" y2="270"/>
    <line x1="0" y1="360" x2="1200" y2="360"/>
    <line x1="0" y1="450" x2="1200" y2="450"/>
    <line x1="0" y1="540" x2="1200" y2="540"/>
    <line x1="150" y1="0" x2="150" y2="630"/>
    <line x1="300" y1="0" x2="300" y2="630"/>
    <line x1="450" y1="0" x2="450" y2="630"/>
    <line x1="600" y1="0" x2="600" y2="630"/>
    <line x1="750" y1="0" x2="750" y2="630"/>
    <line x1="900" y1="0" x2="900" y2="630"/>
    <line x1="1050" y1="0" x2="1050" y2="630"/>
  </g>
  <!-- Accent line -->
  <line x1="80" y1="200" x2="80" y2="430" stroke="#C9A96E" stroke-width="2"/>
  <!-- Text -->
  <text x="120" y="255" font-family="'Noto Sans JP', sans-serif" font-size="64" fill="#F8F7F4" font-weight="300" letter-spacing="-1">味噌汁市</text>
  <text x="122" y="310" font-family="'Inter', sans-serif" font-size="14" fill="#6B6B68" letter-spacing="6">MISOSIRU CITY</text>
  <text x="122" y="380" font-family="'Noto Sans JP', sans-serif" font-size="20" fill="#6B6B68" font-weight="300">建築で、まちを作る。</text>
  <!-- URL -->
  <text x="122" y="440" font-family="'Inter', sans-serif" font-size="13" fill="#4a4a48" letter-spacing="2">misosiru-city.com</text>
</svg>
